<mxfile host="app.diagrams.net" agent="Mozilla/5.0 (Windows NT 10.0; Win64; x64) AppleWebKit/537.36 (KHTML, like Gecko) Chrome/127.0.0.0 Safari/537.36" version="24.7.6">
  <diagram name="Page-1" id="pgy9I5oYHcWPJ9aGwN5I">
    <mxGraphModel dx="1235" dy="655" grid="1" gridSize="10" guides="1" tooltips="1" connect="1" arrows="1" fold="1" page="1" pageScale="1" pageWidth="850" pageHeight="1100" math="0" shadow="0">
      <root>
        <mxCell id="0" />
        <mxCell id="1" parent="0" />
        <mxCell id="iatrL-qNKA81DHMAHy29-2" value="Hóa Đơn" style="rounded=0;whiteSpace=wrap;html=1;fillColor=#ffe6cc;strokeColor=#d79b00;" vertex="1" parent="1">
          <mxGeometry x="360" y="415" width="120" height="60" as="geometry" />
        </mxCell>
        <mxCell id="iatrL-qNKA81DHMAHy29-4" value="Chi Tiết Hóa Đơn" style="rounded=0;whiteSpace=wrap;html=1;fillColor=#dae8fc;strokeColor=#6c8ebf;" vertex="1" parent="1">
          <mxGeometry x="360" y="120" width="120" height="60" as="geometry" />
        </mxCell>
        <mxCell id="iatrL-qNKA81DHMAHy29-5" value="Sản Phẩm" style="rounded=0;whiteSpace=wrap;html=1;fillColor=#d5e8d4;strokeColor=#82b366;" vertex="1" parent="1">
          <mxGeometry x="720" y="120" width="120" height="60" as="geometry" />
        </mxCell>
        <mxCell id="iatrL-qNKA81DHMAHy29-6" value="Mã HD" style="ellipse;whiteSpace=wrap;html=1;" vertex="1" parent="1">
          <mxGeometry x="520" y="410" width="100" height="70" as="geometry" />
        </mxCell>
        <mxCell id="iatrL-qNKA81DHMAHy29-7" value="Mã HD" style="ellipse;whiteSpace=wrap;html=1;" vertex="1" parent="1">
          <mxGeometry x="220" y="80" width="100" height="70" as="geometry" />
        </mxCell>
        <mxCell id="iatrL-qNKA81DHMAHy29-8" value="Mã SP" style="ellipse;whiteSpace=wrap;html=1;" vertex="1" parent="1">
          <mxGeometry x="310" y="20" width="100" height="70" as="geometry" />
        </mxCell>
        <mxCell id="iatrL-qNKA81DHMAHy29-9" value="Số Lượng" style="ellipse;whiteSpace=wrap;html=1;" vertex="1" parent="1">
          <mxGeometry x="310" y="210" width="100" height="70" as="geometry" />
        </mxCell>
        <mxCell id="iatrL-qNKA81DHMAHy29-10" value="Đơn Giá" style="ellipse;whiteSpace=wrap;html=1;" vertex="1" parent="1">
          <mxGeometry x="730" y="210" width="100" height="70" as="geometry" />
        </mxCell>
        <mxCell id="iatrL-qNKA81DHMAHy29-11" value="Tổng Tiền" style="ellipse;whiteSpace=wrap;html=1;" vertex="1" parent="1">
          <mxGeometry x="220" y="410" width="100" height="70" as="geometry" />
        </mxCell>
        <mxCell id="iatrL-qNKA81DHMAHy29-12" value="Thành Tiền" style="ellipse;whiteSpace=wrap;html=1;" vertex="1" parent="1">
          <mxGeometry x="220" y="160" width="100" height="70" as="geometry" />
        </mxCell>
        <mxCell id="iatrL-qNKA81DHMAHy29-13" value="Mã SP" style="ellipse;whiteSpace=wrap;html=1;" vertex="1" parent="1">
          <mxGeometry x="730" y="20" width="100" height="70" as="geometry" />
        </mxCell>
        <mxCell id="iatrL-qNKA81DHMAHy29-14" value="Tên SP" style="ellipse;whiteSpace=wrap;html=1;" vertex="1" parent="1">
          <mxGeometry x="870" y="115" width="100" height="70" as="geometry" />
        </mxCell>
        <mxCell id="iatrL-qNKA81DHMAHy29-16" value="" style="endArrow=none;html=1;rounded=0;entryX=0;entryY=0.5;entryDx=0;entryDy=0;exitX=1;exitY=0.5;exitDx=0;exitDy=0;" edge="1" parent="1" source="iatrL-qNKA81DHMAHy29-11" target="iatrL-qNKA81DHMAHy29-2">
          <mxGeometry width="50" height="50" relative="1" as="geometry">
            <mxPoint x="10" y="560" as="sourcePoint" />
            <mxPoint x="60" y="510" as="targetPoint" />
          </mxGeometry>
        </mxCell>
        <mxCell id="iatrL-qNKA81DHMAHy29-17" value="" style="endArrow=none;html=1;rounded=0;entryX=0;entryY=0.5;entryDx=0;entryDy=0;exitX=1;exitY=0.5;exitDx=0;exitDy=0;" edge="1" parent="1" source="iatrL-qNKA81DHMAHy29-2" target="iatrL-qNKA81DHMAHy29-6">
          <mxGeometry width="50" height="50" relative="1" as="geometry">
            <mxPoint x="150" y="560" as="sourcePoint" />
            <mxPoint x="200" y="510" as="targetPoint" />
          </mxGeometry>
        </mxCell>
        <mxCell id="iatrL-qNKA81DHMAHy29-21" value="" style="endArrow=none;html=1;rounded=0;entryX=0.5;entryY=1;entryDx=0;entryDy=0;exitX=0.5;exitY=0;exitDx=0;exitDy=0;" edge="1" parent="1" source="iatrL-qNKA81DHMAHy29-22" target="iatrL-qNKA81DHMAHy29-4">
          <mxGeometry width="50" height="50" relative="1" as="geometry">
            <mxPoint x="420" y="280" as="sourcePoint" />
            <mxPoint x="470" y="300" as="targetPoint" />
          </mxGeometry>
        </mxCell>
        <mxCell id="iatrL-qNKA81DHMAHy29-22" value="Của" style="rhombus;whiteSpace=wrap;html=1;" vertex="1" parent="1">
          <mxGeometry x="380" y="280" width="80" height="60" as="geometry" />
        </mxCell>
        <mxCell id="iatrL-qNKA81DHMAHy29-23" value="" style="endArrow=none;html=1;rounded=0;entryX=0.5;entryY=1;entryDx=0;entryDy=0;exitX=0.5;exitY=0;exitDx=0;exitDy=0;" edge="1" parent="1" source="iatrL-qNKA81DHMAHy29-2" target="iatrL-qNKA81DHMAHy29-22">
          <mxGeometry width="50" height="50" relative="1" as="geometry">
            <mxPoint x="180" y="400" as="sourcePoint" />
            <mxPoint x="230" y="350" as="targetPoint" />
          </mxGeometry>
        </mxCell>
        <mxCell id="iatrL-qNKA81DHMAHy29-24" value="Gồm" style="rhombus;whiteSpace=wrap;html=1;" vertex="1" parent="1">
          <mxGeometry x="560" y="120" width="80" height="60" as="geometry" />
        </mxCell>
        <mxCell id="iatrL-qNKA81DHMAHy29-25" value="" style="endArrow=none;html=1;rounded=0;entryX=0;entryY=0.5;entryDx=0;entryDy=0;exitX=1;exitY=0.5;exitDx=0;exitDy=0;" edge="1" parent="1" source="iatrL-qNKA81DHMAHy29-4" target="iatrL-qNKA81DHMAHy29-24">
          <mxGeometry width="50" height="50" relative="1" as="geometry">
            <mxPoint x="580" y="290" as="sourcePoint" />
            <mxPoint x="630" y="240" as="targetPoint" />
          </mxGeometry>
        </mxCell>
        <mxCell id="iatrL-qNKA81DHMAHy29-26" value="" style="endArrow=none;html=1;rounded=0;entryX=0;entryY=0.5;entryDx=0;entryDy=0;exitX=1;exitY=0.5;exitDx=0;exitDy=0;" edge="1" parent="1" source="iatrL-qNKA81DHMAHy29-24" target="iatrL-qNKA81DHMAHy29-5">
          <mxGeometry width="50" height="50" relative="1" as="geometry">
            <mxPoint x="490" y="160" as="sourcePoint" />
            <mxPoint x="570" y="160" as="targetPoint" />
          </mxGeometry>
        </mxCell>
        <mxCell id="iatrL-qNKA81DHMAHy29-27" value="" style="endArrow=none;html=1;rounded=0;entryX=0;entryY=0.5;entryDx=0;entryDy=0;exitX=1;exitY=0.5;exitDx=0;exitDy=0;" edge="1" parent="1" source="iatrL-qNKA81DHMAHy29-5" target="iatrL-qNKA81DHMAHy29-14">
          <mxGeometry width="50" height="50" relative="1" as="geometry">
            <mxPoint x="890" y="320" as="sourcePoint" />
            <mxPoint x="940" y="270" as="targetPoint" />
          </mxGeometry>
        </mxCell>
        <mxCell id="iatrL-qNKA81DHMAHy29-28" value="" style="endArrow=none;html=1;rounded=0;entryX=0.5;entryY=1;entryDx=0;entryDy=0;exitX=0.5;exitY=0;exitDx=0;exitDy=0;" edge="1" parent="1" source="iatrL-qNKA81DHMAHy29-10" target="iatrL-qNKA81DHMAHy29-5">
          <mxGeometry width="50" height="50" relative="1" as="geometry">
            <mxPoint x="850" y="160" as="sourcePoint" />
            <mxPoint x="880" y="160" as="targetPoint" />
          </mxGeometry>
        </mxCell>
        <mxCell id="iatrL-qNKA81DHMAHy29-29" value="" style="endArrow=none;html=1;rounded=0;exitX=0.5;exitY=1;exitDx=0;exitDy=0;" edge="1" parent="1" source="iatrL-qNKA81DHMAHy29-13" target="iatrL-qNKA81DHMAHy29-5">
          <mxGeometry width="50" height="50" relative="1" as="geometry">
            <mxPoint x="850" y="160" as="sourcePoint" />
            <mxPoint x="880" y="160" as="targetPoint" />
          </mxGeometry>
        </mxCell>
        <mxCell id="iatrL-qNKA81DHMAHy29-30" value="" style="endArrow=none;html=1;rounded=0;entryX=0.25;entryY=1;entryDx=0;entryDy=0;exitX=0.5;exitY=0;exitDx=0;exitDy=0;" edge="1" parent="1" source="iatrL-qNKA81DHMAHy29-9" target="iatrL-qNKA81DHMAHy29-4">
          <mxGeometry width="50" height="50" relative="1" as="geometry">
            <mxPoint x="180" y="320" as="sourcePoint" />
            <mxPoint x="230" y="270" as="targetPoint" />
          </mxGeometry>
        </mxCell>
        <mxCell id="iatrL-qNKA81DHMAHy29-31" value="" style="endArrow=none;html=1;rounded=0;entryX=0;entryY=0.5;entryDx=0;entryDy=0;exitX=1;exitY=0;exitDx=0;exitDy=0;" edge="1" parent="1" source="iatrL-qNKA81DHMAHy29-12" target="iatrL-qNKA81DHMAHy29-4">
          <mxGeometry width="50" height="50" relative="1" as="geometry">
            <mxPoint x="110" y="390" as="sourcePoint" />
            <mxPoint x="160" y="340" as="targetPoint" />
          </mxGeometry>
        </mxCell>
        <mxCell id="iatrL-qNKA81DHMAHy29-32" value="" style="endArrow=none;html=1;rounded=0;entryX=1;entryY=1;entryDx=0;entryDy=0;exitX=0;exitY=0.5;exitDx=0;exitDy=0;" edge="1" parent="1" source="iatrL-qNKA81DHMAHy29-4" target="iatrL-qNKA81DHMAHy29-7">
          <mxGeometry width="50" height="50" relative="1" as="geometry">
            <mxPoint x="316" y="180" as="sourcePoint" />
            <mxPoint x="370" y="160" as="targetPoint" />
          </mxGeometry>
        </mxCell>
        <mxCell id="iatrL-qNKA81DHMAHy29-33" value="" style="endArrow=none;html=1;rounded=0;entryX=0.5;entryY=1;entryDx=0;entryDy=0;exitX=0.25;exitY=0;exitDx=0;exitDy=0;" edge="1" parent="1" source="iatrL-qNKA81DHMAHy29-4" target="iatrL-qNKA81DHMAHy29-8">
          <mxGeometry width="50" height="50" relative="1" as="geometry">
            <mxPoint x="370" y="160" as="sourcePoint" />
            <mxPoint x="316" y="150" as="targetPoint" />
          </mxGeometry>
        </mxCell>
        <mxCell id="iatrL-qNKA81DHMAHy29-34" value="Hóa Đơn" style="swimlane;fontStyle=0;childLayout=stackLayout;horizontal=1;startSize=30;horizontalStack=0;resizeParent=1;resizeParentMax=0;resizeLast=0;collapsible=1;marginBottom=0;whiteSpace=wrap;html=1;" vertex="1" parent="1">
          <mxGeometry x="370" y="650" width="140" height="120" as="geometry" />
        </mxCell>
        <mxCell id="iatrL-qNKA81DHMAHy29-35" value="-" style="text;strokeColor=none;fillColor=none;align=left;verticalAlign=middle;spacingLeft=4;spacingRight=4;overflow=hidden;points=[[0,0.5],[1,0.5]];portConstraint=eastwest;rotatable=0;whiteSpace=wrap;html=1;" vertex="1" parent="iatrL-qNKA81DHMAHy29-34">
          <mxGeometry y="30" width="140" height="30" as="geometry" />
        </mxCell>
        <mxCell id="iatrL-qNKA81DHMAHy29-36" value="Item 2" style="text;strokeColor=none;fillColor=none;align=left;verticalAlign=middle;spacingLeft=4;spacingRight=4;overflow=hidden;points=[[0,0.5],[1,0.5]];portConstraint=eastwest;rotatable=0;whiteSpace=wrap;html=1;" vertex="1" parent="iatrL-qNKA81DHMAHy29-34">
          <mxGeometry y="60" width="140" height="30" as="geometry" />
        </mxCell>
        <mxCell id="iatrL-qNKA81DHMAHy29-37" value="Item 3" style="text;strokeColor=none;fillColor=none;align=left;verticalAlign=middle;spacingLeft=4;spacingRight=4;overflow=hidden;points=[[0,0.5],[1,0.5]];portConstraint=eastwest;rotatable=0;whiteSpace=wrap;html=1;" vertex="1" parent="iatrL-qNKA81DHMAHy29-34">
          <mxGeometry y="90" width="140" height="30" as="geometry" />
        </mxCell>
      </root>
    </mxGraphModel>
  </diagram>
</mxfile>
